<?xml version="1.0" standalone="no"?>
<!DOCTYPE svg PUBLIC "-//W3C//DTD SVG 20010904//EN"
 "http://www.w3.org/TR/2001/REC-SVG-20010904/DTD/svg10.dtd">
<svg version="1.0" xmlns="http://www.w3.org/2000/svg"
 width="300.000000pt" height="300.000000pt" viewBox="0 0 300.000000 300.000000"
 preserveAspectRatio="xMidYMid meet">
<metadata>
Created by potrace 1.14, written by Peter Selinger 2001-2017
</metadata>
<g transform="translate(0.000000,300.000000) scale(0.100000,-0.100000)"
fill="#000000" stroke="none">
<path d="M1932 2765 c-129 -28 -235 -104 -282 -201 -30 -64 -33 -200 -5 -254
54 -103 128 -155 295 -206 259 -80 294 -102 304 -183 4 -39 -24 -85 -65 -107
-34 -17 -128 -23 -191 -11 -97 18 -283 111 -319 160 -8 11 -20 -6 -72 -110
l-46 -91 57 -40 c86 -60 205 -113 288 -128 222 -41 394 -10 523 94 126 103
142 337 29 450 -61 62 -112 88 -294 148 -181 60 -228 87 -243 141 -22 79 30
127 139 127 102 0 186 -23 301 -80 l66 -33 51 102 c58 117 60 110 -45 158
-146 67 -349 94 -491 64z"/>
<path d="M535 2752 c-3 -3 -5 -266 -5 -584 l0 -578 453 0 453 0 -1 99 c0 55
-4 103 -7 107 -4 4 -149 7 -323 6 l-315 0 0 134 0 134 282 2 282 3 1 98 c0 55
-4 101 -8 104 -5 3 -132 5 -283 5 l-275 0 3 132 3 131 300 1 c165 1 305 2 312
3 8 1 11 32 10 104 l-2 102 -437 1 c-241 1 -440 -1 -443 -4z"/>
<path d="M811 1424 c-208 -55 -273 -258 -148 -466 l34 -56 -68 -47 c-121 -82
-169 -166 -163 -287 5 -130 89 -241 218 -290 51 -19 79 -23 171 -22 124 0 175
15 278 84 l57 39 54 -52 c30 -29 68 -65 85 -82 l31 -29 65 64 65 64 -90 84
-90 84 25 42 c23 37 85 162 85 171 0 5 -139 105 -153 110 -7 3 -22 -20 -36
-58 -13 -34 -32 -77 -43 -94 l-20 -33 -99 103 c-54 56 -99 104 -99 107 0 3 31
22 69 44 84 47 157 117 183 174 58 130 -9 279 -152 333 -69 27 -185 33 -259
13z m172 -145 c68 -31 76 -136 15 -201 -22 -25 -115 -88 -128 -88 -17 0 -62
105 -67 154 -9 89 36 144 119 145 20 1 48 -4 61 -10z m-58 -635 c66 -70 121
-130 123 -135 2 -4 -20 -21 -49 -38 -94 -53 -201 -52 -267 4 -54 45 -73 136
-42 196 15 28 90 99 105 99 5 0 64 -57 130 -126z"/>
<path d="M1630 844 l0 -584 453 0 452 0 1 105 0 105 -323 0 -323 0 0 135 0
135 280 0 c260 0 280 1 281 18 1 9 2 56 3 105 l1 87 -283 0 -283 0 3 132 3
133 305 1 c168 1 308 2 312 3 3 0 5 47 5 104 l-2 102 -442 1 -443 1 0 -583z"/>
</g>
</svg>
